<svg width="29" height="24" viewBox="0 0 29 24" fill="none" xmlns="http://www.w3.org/2000/svg">
<path d="M26.2249 17.5014V9.38682L15.055 15.404C14.6388 15.6332 14.1994 15.7478 13.7368 15.7478C13.2743 15.7478 12.8349 15.6332 12.4187 15.404L0.693792 9.07737C0.439406 8.93983 0.259948 8.76791 0.155419 8.56161C0.0508893 8.35531 -0.000912868 8.12608 1.21716e-05 7.87393C0.000937211 7.62178 0.0532021 7.39256 0.156807 7.18625C0.260411 6.97995 0.439406 6.80803 0.693792 6.6705L12.4187 0.34386C12.6268 0.229247 12.8409 0.143058 13.0611 0.0852933C13.2813 0.0275283 13.5065 -0.000895414 13.7368 2.14901e-05C13.9672 0.000938394 14.1929 0.0298208 14.414 0.0866688C14.6351 0.143517 14.8487 0.229247 15.055 0.34386L28.2715 7.49571C28.5028 7.61032 28.6822 7.77674 28.8099 7.99496C28.9376 8.21319 29.0009 8.44792 29 8.69915V17.5014C29 17.8911 28.8668 18.218 28.6004 18.482C28.334 18.7461 28.0046 18.8777 27.6124 18.8768C27.2202 18.8759 26.8909 18.7438 26.6245 18.4807C26.3581 18.2175 26.2249 17.8911 26.2249 17.5014ZM12.4187 23.6561L5.48087 19.9427C5.01835 19.6905 4.6599 19.3467 4.40551 18.9112C4.15113 18.4756 4.02393 18.0057 4.02393 17.5014V12.2751L12.4187 16.7794C12.8349 17.0086 13.2743 17.1232 13.7368 17.1232C14.1994 17.1232 14.6388 17.0086 15.055 16.7794L23.4498 12.2751V17.5014C23.4498 18.0057 23.3226 18.4756 23.0682 18.9112C22.8138 19.3467 22.4553 19.6905 21.9928 19.9427L15.055 23.6561C14.8469 23.7708 14.6332 23.8569 14.414 23.9147C14.1947 23.9725 13.969 24.0009 13.7368 24C13.5047 23.9991 13.2789 23.9706 13.0597 23.9147C12.8405 23.8588 12.6268 23.7726 12.4187 23.6561Z" fill="#424451"/>
</svg>
